<svg width="228" height="110" viewBox="0 0 228 110" fill="none" xmlns="http://www.w3.org/2000/svg">
<path d="M56 0.5H55.6129L55.5159 0.874809L40.5159 58.8748L40.3542 59.5H41H178H178.668L178.48 58.8594L161.48 0.859365L161.374 0.5H161H56Z" fill="white" stroke="black"/>
<ellipse cx="133" cy="90.5" rx="10" ry="19.5" fill="black"/>
<ellipse cx="33" cy="90.5" rx="10" ry="19.5" fill="black"/>
<ellipse cx="86" cy="90.5" rx="10" ry="19.5" fill="black"/>
<ellipse cx="202" cy="90.5" rx="10" ry="19.5" fill="black"/>
<path d="M0 59H152V84H0V59Z" fill="#20AF48"/>
<path d="M152 59H228V84H152V59Z" fill="#C1FFA4"/>
<line x1="114.5" y1="1" x2="114.5" y2="59" stroke="black"/>
<rect x="156" y="66" width="26" height="11" fill="white"/>
<rect x="199" y="66" width="26" height="11" fill="white"/>
</svg>
